<mxfile host="app.diagrams.net" modified="2023-11-02T05:13:04.834Z" agent="Mozilla/5.0 (Windows NT 10.0; Win64; x64) AppleWebKit/537.36 (KHTML, like Gecko) Chrome/118.0.0.0 Safari/537.36" etag="riXdXIB6WZhseJCSX3WT" version="22.0.8" type="github" pages="2">
  <diagram name="Page-1" id="3NvbwBQaYA_A24HLge_B">
    <mxGraphModel dx="1434" dy="858" grid="0" gridSize="10" guides="1" tooltips="1" connect="1" arrows="1" fold="1" page="1" pageScale="1" pageWidth="850" pageHeight="1100" math="0" shadow="0">
      <root>
        <mxCell id="0" />
        <mxCell id="1" parent="0" />
        <mxCell id="0vcy0YOTqKpi5q5xN4Ab-2" value="Price/ Discount Ticket" style="rounded=0;whiteSpace=wrap;html=1;" vertex="1" parent="1">
          <mxGeometry x="365" y="170" width="90" height="40" as="geometry" />
        </mxCell>
        <mxCell id="0vcy0YOTqKpi5q5xN4Ab-11" value="Check Item&lt;br style=&quot;border-color: var(--border-color);&quot;&gt;Price/GTIN/Promo" style="rounded=1;whiteSpace=wrap;html=1;arcSize=40;fontColor=#000000;fillColor=#ffffc0;strokeColor=#ff0000;" vertex="1" parent="1">
          <mxGeometry x="350" y="280" width="120" height="40" as="geometry" />
        </mxCell>
        <mxCell id="0vcy0YOTqKpi5q5xN4Ab-16" value="" style="endArrow=open;endFill=1;endSize=12;html=1;rounded=0;" edge="1" parent="1">
          <mxGeometry width="160" relative="1" as="geometry">
            <mxPoint x="409.5" y="320" as="sourcePoint" />
            <mxPoint x="409.5" y="390" as="targetPoint" />
          </mxGeometry>
        </mxCell>
        <mxCell id="0vcy0YOTqKpi5q5xN4Ab-17" value="" style="endArrow=open;endFill=1;endSize=12;html=1;rounded=0;" edge="1" parent="1">
          <mxGeometry width="160" relative="1" as="geometry">
            <mxPoint x="409.5" y="210" as="sourcePoint" />
            <mxPoint x="409.5" y="280" as="targetPoint" />
          </mxGeometry>
        </mxCell>
        <mxCell id="0vcy0YOTqKpi5q5xN4Ab-18" value="LC HQ&lt;br style=&quot;border-color: var(--border-color);&quot;&gt;Availability" style="rhombus;whiteSpace=wrap;html=1;fontColor=#000000;fillColor=#ffffc0;strokeColor=#ff0000;" vertex="1" parent="1">
          <mxGeometry x="350" y="390" width="120" height="60" as="geometry" />
        </mxCell>
        <mxCell id="0vcy0YOTqKpi5q5xN4Ab-19" value="no" style="edgeStyle=orthogonalEdgeStyle;html=1;align=left;verticalAlign=bottom;endArrow=open;endSize=8;strokeColor=#ff0000;rounded=0;" edge="1" source="0vcy0YOTqKpi5q5xN4Ab-18" parent="1">
          <mxGeometry x="-1" relative="1" as="geometry">
            <mxPoint x="535" y="420" as="targetPoint" />
          </mxGeometry>
        </mxCell>
        <mxCell id="0vcy0YOTqKpi5q5xN4Ab-20" value="yes" style="edgeStyle=orthogonalEdgeStyle;html=1;align=left;verticalAlign=top;endArrow=open;endSize=8;strokeColor=#ff0000;rounded=0;" edge="1" source="0vcy0YOTqKpi5q5xN4Ab-18" parent="1">
          <mxGeometry x="-1" relative="1" as="geometry">
            <mxPoint x="410" y="500" as="targetPoint" />
          </mxGeometry>
        </mxCell>
        <mxCell id="0vcy0YOTqKpi5q5xN4Ab-21" value="CIO /SAP Team&lt;br&gt;Notification" style="strokeWidth=2;html=1;shape=mxgraph.flowchart.document2;whiteSpace=wrap;size=0.25;" vertex="1" parent="1">
          <mxGeometry x="545" y="390" width="100" height="60" as="geometry" />
        </mxCell>
        <mxCell id="0vcy0YOTqKpi5q5xN4Ab-22" value="LC&lt;br&gt;Store Sever&amp;nbsp;" style="rhombus;whiteSpace=wrap;html=1;fontColor=#000000;fillColor=#ffffc0;strokeColor=#ff0000;" vertex="1" parent="1">
          <mxGeometry x="362.5" y="500" width="95" height="60" as="geometry" />
        </mxCell>
        <mxCell id="0vcy0YOTqKpi5q5xN4Ab-26" value="yes" style="edgeStyle=orthogonalEdgeStyle;html=1;align=left;verticalAlign=top;endArrow=open;endSize=8;strokeColor=#ff0000;rounded=0;" edge="1" parent="1">
          <mxGeometry x="-1" relative="1" as="geometry">
            <mxPoint x="411" y="608" as="targetPoint" />
            <mxPoint x="411" y="558" as="sourcePoint" />
          </mxGeometry>
        </mxCell>
        <mxCell id="0vcy0YOTqKpi5q5xN4Ab-27" value="no" style="edgeStyle=orthogonalEdgeStyle;html=1;align=left;verticalAlign=bottom;endArrow=open;endSize=8;strokeColor=#ff0000;rounded=0;" edge="1" parent="1">
          <mxGeometry x="-1" relative="1" as="geometry">
            <mxPoint x="522.5" y="529.5" as="targetPoint" />
            <mxPoint x="457.5" y="529.5" as="sourcePoint" />
          </mxGeometry>
        </mxCell>
        <mxCell id="0vcy0YOTqKpi5q5xN4Ab-28" value="CDO Action" style="strokeWidth=2;html=1;shape=mxgraph.flowchart.document2;whiteSpace=wrap;size=0.25;" vertex="1" parent="1">
          <mxGeometry x="545" y="500" width="100" height="60" as="geometry" />
        </mxCell>
        <mxCell id="0vcy0YOTqKpi5q5xN4Ab-29" value="POS" style="rhombus;whiteSpace=wrap;html=1;fontColor=#000000;fillColor=#ffffc0;strokeColor=#ff0000;" vertex="1" parent="1">
          <mxGeometry x="362.5" y="610" width="95" height="60" as="geometry" />
        </mxCell>
        <mxCell id="0vcy0YOTqKpi5q5xN4Ab-30" value="no" style="edgeStyle=orthogonalEdgeStyle;html=1;align=left;verticalAlign=bottom;endArrow=open;endSize=8;strokeColor=#ff0000;rounded=0;" edge="1" parent="1">
          <mxGeometry x="-1" relative="1" as="geometry">
            <mxPoint x="522.5" y="639.5" as="targetPoint" />
            <mxPoint x="457.5" y="639.5" as="sourcePoint" />
          </mxGeometry>
        </mxCell>
        <mxCell id="0vcy0YOTqKpi5q5xN4Ab-31" value="CDO Action" style="strokeWidth=2;html=1;shape=mxgraph.flowchart.document2;whiteSpace=wrap;size=0.25;" vertex="1" parent="1">
          <mxGeometry x="545" y="620" width="100" height="60" as="geometry" />
        </mxCell>
        <mxCell id="0vcy0YOTqKpi5q5xN4Ab-32" value="yes" style="edgeStyle=orthogonalEdgeStyle;html=1;align=left;verticalAlign=top;endArrow=open;endSize=8;strokeColor=#ff0000;rounded=0;" edge="1" parent="1">
          <mxGeometry x="-1" relative="1" as="geometry">
            <mxPoint x="409.5" y="720" as="targetPoint" />
            <mxPoint x="409.5" y="670" as="sourcePoint" />
          </mxGeometry>
        </mxCell>
        <mxCell id="0vcy0YOTqKpi5q5xN4Ab-34" value="" style="ellipse;html=1;shape=endState;fillColor=#000000;strokeColor=#ff0000;" vertex="1" parent="1">
          <mxGeometry x="394" y="760" width="30" height="30" as="geometry" />
        </mxCell>
        <mxCell id="0vcy0YOTqKpi5q5xN4Ab-37" value="" style="ellipse;html=1;shape=startState;fillColor=#000000;strokeColor=#ff0000;" vertex="1" parent="1">
          <mxGeometry x="394" y="97" width="30" height="30" as="geometry" />
        </mxCell>
        <mxCell id="0vcy0YOTqKpi5q5xN4Ab-38" value="" style="edgeStyle=orthogonalEdgeStyle;html=1;verticalAlign=bottom;endArrow=open;endSize=8;strokeColor=#ff0000;rounded=0;" edge="1" source="0vcy0YOTqKpi5q5xN4Ab-37" parent="1">
          <mxGeometry relative="1" as="geometry">
            <mxPoint x="409" y="167" as="targetPoint" />
          </mxGeometry>
        </mxCell>
        <mxCell id="0vcy0YOTqKpi5q5xN4Ab-42" value="Close Ticket" style="rounded=0;whiteSpace=wrap;html=1;" vertex="1" parent="1">
          <mxGeometry x="367.5" y="720" width="90" height="40" as="geometry" />
        </mxCell>
      </root>
    </mxGraphModel>
  </diagram>
  <diagram id="xLUXUsxbAf5hR2nj3gUX" name="Page-2">
    <mxGraphModel dx="1434" dy="858" grid="0" gridSize="10" guides="1" tooltips="1" connect="1" arrows="1" fold="1" page="1" pageScale="1" pageWidth="850" pageHeight="1100" math="0" shadow="0">
      <root>
        <mxCell id="0" />
        <mxCell id="1" parent="0" />
        <mxCell id="NE9AkChMfoFuwEBjwCUo-1" value="Article Code" style="rounded=0;whiteSpace=wrap;html=1;" vertex="1" parent="1">
          <mxGeometry x="366" y="217" width="90" height="40" as="geometry" />
        </mxCell>
        <mxCell id="NE9AkChMfoFuwEBjwCUo-2" value="Check Item&lt;br style=&quot;border-color: var(--border-color);&quot;&gt;Price/GTIN/Promo" style="rounded=1;whiteSpace=wrap;html=1;arcSize=40;fontColor=#000000;fillColor=#ffffc0;strokeColor=#ff0000;" vertex="1" parent="1">
          <mxGeometry x="351" y="327" width="120" height="40" as="geometry" />
        </mxCell>
        <mxCell id="NE9AkChMfoFuwEBjwCUo-3" value="" style="endArrow=open;endFill=1;endSize=12;html=1;rounded=0;" edge="1" parent="1">
          <mxGeometry width="160" relative="1" as="geometry">
            <mxPoint x="410.5" y="367" as="sourcePoint" />
            <mxPoint x="410.5" y="437" as="targetPoint" />
          </mxGeometry>
        </mxCell>
        <mxCell id="NE9AkChMfoFuwEBjwCUo-4" value="" style="endArrow=open;endFill=1;endSize=12;html=1;rounded=0;" edge="1" parent="1">
          <mxGeometry width="160" relative="1" as="geometry">
            <mxPoint x="410.5" y="257" as="sourcePoint" />
            <mxPoint x="410.5" y="327" as="targetPoint" />
          </mxGeometry>
        </mxCell>
        <mxCell id="NE9AkChMfoFuwEBjwCUo-5" value="LC HQ&lt;br style=&quot;border-color: var(--border-color);&quot;&gt;Availability" style="rhombus;whiteSpace=wrap;html=1;fontColor=#000000;fillColor=#ffffc0;strokeColor=#ff0000;" vertex="1" parent="1">
          <mxGeometry x="351" y="437" width="120" height="60" as="geometry" />
        </mxCell>
        <mxCell id="NE9AkChMfoFuwEBjwCUo-6" value="no" style="edgeStyle=orthogonalEdgeStyle;html=1;align=left;verticalAlign=bottom;endArrow=open;endSize=8;strokeColor=#ff0000;rounded=0;" edge="1" source="NE9AkChMfoFuwEBjwCUo-5" parent="1">
          <mxGeometry x="-1" relative="1" as="geometry">
            <mxPoint x="536" y="467" as="targetPoint" />
          </mxGeometry>
        </mxCell>
        <mxCell id="NE9AkChMfoFuwEBjwCUo-7" value="yes" style="edgeStyle=orthogonalEdgeStyle;html=1;align=left;verticalAlign=top;endArrow=open;endSize=8;strokeColor=#ff0000;rounded=0;" edge="1" source="NE9AkChMfoFuwEBjwCUo-5" parent="1">
          <mxGeometry x="-1" relative="1" as="geometry">
            <mxPoint x="411" y="547" as="targetPoint" />
          </mxGeometry>
        </mxCell>
        <mxCell id="NE9AkChMfoFuwEBjwCUo-12" value="Copy to Archive Tables and Delete Active from tables" style="strokeWidth=2;html=1;shape=mxgraph.flowchart.document2;whiteSpace=wrap;size=0.25;" vertex="1" parent="1">
          <mxGeometry x="585" y="547" width="136" height="60" as="geometry" />
        </mxCell>
        <mxCell id="NE9AkChMfoFuwEBjwCUo-13" value="POS" style="rhombus;whiteSpace=wrap;html=1;fontColor=#000000;fillColor=#ffffc0;strokeColor=#ff0000;" vertex="1" parent="1">
          <mxGeometry x="363" y="737" width="95" height="60" as="geometry" />
        </mxCell>
        <mxCell id="NE9AkChMfoFuwEBjwCUo-14" value="no" style="edgeStyle=orthogonalEdgeStyle;html=1;align=left;verticalAlign=bottom;endArrow=open;endSize=8;strokeColor=#ff0000;rounded=0;" edge="1" parent="1">
          <mxGeometry x="-1" relative="1" as="geometry">
            <mxPoint x="523" y="766.5" as="targetPoint" />
            <mxPoint x="458" y="766.5" as="sourcePoint" />
          </mxGeometry>
        </mxCell>
        <mxCell id="NE9AkChMfoFuwEBjwCUo-16" value="yes" style="edgeStyle=orthogonalEdgeStyle;html=1;align=left;verticalAlign=top;endArrow=open;endSize=8;strokeColor=#ff0000;rounded=0;" edge="1" parent="1">
          <mxGeometry x="-1" relative="1" as="geometry">
            <mxPoint x="410" y="847" as="targetPoint" />
            <mxPoint x="410" y="797" as="sourcePoint" />
          </mxGeometry>
        </mxCell>
        <mxCell id="NE9AkChMfoFuwEBjwCUo-17" value="" style="ellipse;html=1;shape=endState;fillColor=#000000;strokeColor=#ff0000;" vertex="1" parent="1">
          <mxGeometry x="395.5" y="941" width="30" height="30" as="geometry" />
        </mxCell>
        <mxCell id="NE9AkChMfoFuwEBjwCUo-18" value="" style="ellipse;html=1;shape=startState;fillColor=#000000;strokeColor=#ff0000;" vertex="1" parent="1">
          <mxGeometry x="395" y="144" width="30" height="30" as="geometry" />
        </mxCell>
        <mxCell id="NE9AkChMfoFuwEBjwCUo-19" value="" style="edgeStyle=orthogonalEdgeStyle;html=1;verticalAlign=bottom;endArrow=open;endSize=8;strokeColor=#ff0000;rounded=0;" edge="1" source="NE9AkChMfoFuwEBjwCUo-18" parent="1">
          <mxGeometry relative="1" as="geometry">
            <mxPoint x="410" y="214" as="targetPoint" />
          </mxGeometry>
        </mxCell>
        <mxCell id="NE9AkChMfoFuwEBjwCUo-23" value="" style="ellipse;html=1;shape=endState;fillColor=#000000;strokeColor=#ff0000;" vertex="1" parent="1">
          <mxGeometry x="550" y="452" width="30" height="30" as="geometry" />
        </mxCell>
        <mxCell id="NE9AkChMfoFuwEBjwCUo-24" value="LC HQ" style="rounded=1;whiteSpace=wrap;html=1;arcSize=40;fontColor=#000000;fillColor=#ffffc0;strokeColor=#ff0000;" vertex="1" parent="1">
          <mxGeometry x="348" y="553" width="120" height="40" as="geometry" />
        </mxCell>
        <mxCell id="NE9AkChMfoFuwEBjwCUo-26" value="" style="endArrow=open;endFill=1;endSize=12;html=1;rounded=0;" edge="1" parent="1">
          <mxGeometry width="160" relative="1" as="geometry">
            <mxPoint x="472" y="576" as="sourcePoint" />
            <mxPoint x="582" y="576" as="targetPoint" />
          </mxGeometry>
        </mxCell>
        <mxCell id="NE9AkChMfoFuwEBjwCUo-28" value="" style="endArrow=open;endFill=1;endSize=12;html=1;rounded=0;" edge="1" parent="1">
          <mxGeometry width="160" relative="1" as="geometry">
            <mxPoint x="410.5" y="592" as="sourcePoint" />
            <mxPoint x="410.5" y="639.5" as="targetPoint" />
          </mxGeometry>
        </mxCell>
        <mxCell id="0DIbFvESVx-k4KAR7CTS-3" value="Copy to Archive Tables and Delete from Active tables" style="strokeWidth=2;html=1;shape=mxgraph.flowchart.document2;whiteSpace=wrap;size=0.25;" vertex="1" parent="1">
          <mxGeometry x="583" y="638" width="135" height="60" as="geometry" />
        </mxCell>
        <mxCell id="0DIbFvESVx-k4KAR7CTS-4" value="Store Server" style="rounded=1;whiteSpace=wrap;html=1;arcSize=40;fontColor=#000000;fillColor=#ffffc0;strokeColor=#ff0000;" vertex="1" parent="1">
          <mxGeometry x="350" y="648" width="120" height="40" as="geometry" />
        </mxCell>
        <mxCell id="0DIbFvESVx-k4KAR7CTS-5" value="" style="endArrow=open;endFill=1;endSize=12;html=1;rounded=0;" edge="1" parent="1">
          <mxGeometry width="160" relative="1" as="geometry">
            <mxPoint x="470" y="670" as="sourcePoint" />
            <mxPoint x="580" y="670" as="targetPoint" />
          </mxGeometry>
        </mxCell>
        <mxCell id="0DIbFvESVx-k4KAR7CTS-6" value="" style="endArrow=open;endFill=1;endSize=12;html=1;rounded=0;" edge="1" parent="1">
          <mxGeometry width="160" relative="1" as="geometry">
            <mxPoint x="410.5" y="690" as="sourcePoint" />
            <mxPoint x="410.5" y="737.5" as="targetPoint" />
          </mxGeometry>
        </mxCell>
        <mxCell id="0DIbFvESVx-k4KAR7CTS-7" value="POS" style="rounded=1;whiteSpace=wrap;html=1;arcSize=40;fontColor=#000000;fillColor=#ffffc0;strokeColor=#ff0000;" vertex="1" parent="1">
          <mxGeometry x="353" y="848" width="120" height="40" as="geometry" />
        </mxCell>
        <mxCell id="0DIbFvESVx-k4KAR7CTS-9" value="" style="endArrow=open;endFill=1;endSize=12;html=1;rounded=0;" edge="1" parent="1">
          <mxGeometry width="160" relative="1" as="geometry">
            <mxPoint x="473" y="870" as="sourcePoint" />
            <mxPoint x="583" y="870" as="targetPoint" />
          </mxGeometry>
        </mxCell>
        <mxCell id="0DIbFvESVx-k4KAR7CTS-10" value="Delete from Active tables" style="strokeWidth=2;html=1;shape=mxgraph.flowchart.document2;whiteSpace=wrap;size=0.25;" vertex="1" parent="1">
          <mxGeometry x="583" y="838" width="135" height="60" as="geometry" />
        </mxCell>
        <mxCell id="0DIbFvESVx-k4KAR7CTS-12" value="" style="ellipse;html=1;shape=endState;fillColor=#000000;strokeColor=#ff0000;" vertex="1" parent="1">
          <mxGeometry x="534" y="752" width="30" height="30" as="geometry" />
        </mxCell>
        <mxCell id="0DIbFvESVx-k4KAR7CTS-14" value="" style="endArrow=open;endFill=1;endSize=12;html=1;rounded=0;" edge="1" parent="1">
          <mxGeometry width="160" relative="1" as="geometry">
            <mxPoint x="409.5" y="890" as="sourcePoint" />
            <mxPoint x="409.5" y="937.5" as="targetPoint" />
          </mxGeometry>
        </mxCell>
      </root>
    </mxGraphModel>
  </diagram>
</mxfile>
